<svg xmlns="http://www.w3.org/2000/svg" version="1.1" xmlns:xlink="http://www.w3.org/1999/xlink" xmlns:svgjs="http://svgjs.dev/svgjs" width="1440" height="560" preserveAspectRatio="none" viewBox="0 0 1440 560"><g mask="url(&quot;#SvgjsMask1013&quot;)" fill="none"><rect width="1440" height="560" x="0" y="0" fill="url(&quot;#SvgjsLinearGradient1014&quot;)"></rect><path d="M 0,55 C 57.6,72.8 172.8,139.8 288,144 C 403.2,148.2 460.8,54.6 576,76 C 691.2,97.4 748.8,253.8 864,251 C 979.2,248.2 1036.8,61.2 1152,62 C 1267.2,62.8 1382.4,216.4 1440,255L1440 560L0 560z" fill="#184a7e"></path><path d="M 0,295 C 96,344.6 288,543.4 480,543 C 672,542.6 768,312.2 960,293 C 1152,273.8 1344,416.2 1440,447L1440 560L0 560z" fill="#2264ab"></path></g><defs><mask id="SvgjsMask1013"><rect width="1440" height="560" fill="#ffffff"></rect></mask><linearGradient x1="15.28%" y1="-39.29%" x2="84.72%" y2="139.29%" gradientUnits="userSpaceOnUse" id="SvgjsLinearGradient1014"><stop stop-color="#0e2a47" offset="0"></stop><stop stop-color="#00459e" offset="1"></stop></linearGradient></defs></svg>